<?xml version="1.0" encoding="UTF-8" standalone="no"?>
<!DOCTYPE svg PUBLIC "-//W3C//DTD SVG 20010904//EN"
              "http://www.w3.org/TR/2001/REC-SVG-20010904/DTD/svg10.dtd">

<svg xmlns="http://www.w3.org/2000/svg"
     width="243.861mm" height="137.172mm"
     viewBox="0 0 1152 648">
  <path id="Selection"
        fill="none" stroke="black" stroke-width="1"
        d="M 0.00,0.00
           C 0.00,0.00 1152.00,0.00 1152.00,0.00
             1152.00,0.00 1152.00,254.00 1152.00,254.00
             1152.00,254.00 1146.00,253.00 1146.00,253.00
             1152.40,255.60 1151.99,257.65 1152.00,264.00
             1152.00,264.00 1152.00,322.00 1152.00,322.00
             1152.00,322.00 1139.00,321.00 1139.00,321.00
             1139.00,321.00 1152.00,323.00 1152.00,323.00
             1152.00,323.00 1152.00,626.00 1152.00,626.00
             1152.00,626.00 1134.00,626.00 1134.00,626.00
             1134.00,626.00 1120.00,626.00 1120.00,626.00
             1120.00,626.00 1132.00,627.00 1132.00,627.00
             1132.00,627.00 1152.00,627.00 1152.00,627.00
             1152.00,627.00 1152.00,648.00 1152.00,648.00
             1152.00,648.00 0.00,648.00 0.00,648.00
             0.00,648.00 0.00,514.00 0.00,514.00
             0.00,514.00 23.00,513.00 23.00,513.00
             23.00,513.00 0.00,513.00 0.00,513.00
             0.00,513.00 0.00,430.00 0.00,430.00
             0.00,430.00 7.00,428.00 7.00,428.00
             7.00,428.00 0.00,428.00 0.00,428.00
             0.00,428.00 0.00,140.00 0.00,140.00
             0.00,140.00 4.00,139.00 4.00,139.00
             -0.11,137.35 0.08,136.26 0.00,132.00
             0.00,132.00 0.00,105.00 0.00,105.00
             0.00,105.00 0.00,0.00 0.00,0.00 Z
           M 9.00,142.00
           C 9.00,142.00 8.00,142.00 8.00,142.00
             8.00,142.00 9.00,143.00 9.00,143.00
             9.00,143.00 9.00,142.00 9.00,142.00 Z
           M 25.00,148.00
           C 25.00,148.00 20.00,149.00 20.00,149.00
             20.00,149.00 25.00,148.00 25.00,148.00 Z
           M 38.00,151.00
           C 38.00,151.00 31.00,152.00 31.00,152.00
             31.00,152.00 38.00,151.00 38.00,151.00 Z
           M 46.00,152.00
           C 46.00,152.00 38.00,153.00 38.00,153.00
             38.00,153.00 46.00,152.00 46.00,152.00 Z
           M 61.00,155.00
           C 61.00,155.00 54.00,156.00 54.00,156.00
             54.00,156.00 61.00,155.00 61.00,155.00 Z
           M 69.00,156.00
           C 69.00,156.00 61.00,157.00 61.00,157.00
             61.00,157.00 69.00,156.00 69.00,156.00 Z
           M 75.00,157.00
           C 75.00,157.00 69.00,158.00 69.00,158.00
             69.00,158.00 75.00,157.00 75.00,157.00 Z
           M 86.00,158.00
           C 86.00,158.00 75.00,159.00 75.00,159.00
             75.00,159.00 86.00,158.00 86.00,158.00 Z
           M 101.00,159.00
           C 101.00,159.00 86.00,160.00 86.00,160.00
             86.00,160.00 101.00,159.00 101.00,159.00 Z
           M 122.00,160.00
           C 122.00,160.00 101.00,161.00 101.00,161.00
             101.00,161.00 122.00,160.00 122.00,160.00 Z
           M 132.00,161.00
           C 132.00,161.00 122.00,162.00 122.00,162.00
             122.00,162.00 132.00,161.00 132.00,161.00 Z
           M 141.00,162.00
           C 141.00,162.00 132.00,163.00 132.00,163.00
             132.00,163.00 141.00,162.00 141.00,162.00 Z
           M 151.00,163.00
           C 151.00,163.00 141.00,164.00 141.00,164.00
             141.00,164.00 151.00,163.00 151.00,163.00 Z
           M 159.00,164.00
           C 159.00,164.00 151.00,165.00 151.00,165.00
             151.00,165.00 159.00,164.00 159.00,164.00 Z
           M 166.00,165.00
           C 166.00,165.00 159.00,166.00 159.00,166.00
             159.00,166.00 166.00,165.00 166.00,165.00 Z
           M 174.00,166.00
           C 174.00,166.00 166.00,167.00 166.00,167.00
             166.00,167.00 174.00,166.00 174.00,166.00 Z
           M 181.00,167.00
           C 181.00,167.00 174.00,168.00 174.00,168.00
             174.00,168.00 181.00,167.00 181.00,167.00 Z
           M 188.00,168.00
           C 188.00,168.00 181.00,169.00 181.00,169.00
             181.00,169.00 188.00,168.00 188.00,168.00 Z
           M 196.00,169.00
           C 196.00,169.00 188.00,170.00 188.00,170.00
             188.00,170.00 196.00,169.00 196.00,169.00 Z
           M 203.00,170.00
           C 203.00,170.00 196.00,171.00 196.00,171.00
             196.00,171.00 203.00,170.00 203.00,170.00 Z
           M 209.00,171.00
           C 209.00,171.00 203.00,172.00 203.00,172.00
             203.00,172.00 209.00,171.00 209.00,171.00 Z
           M 214.00,172.00
           C 214.00,172.00 209.00,173.00 209.00,173.00
             209.00,173.00 214.00,172.00 214.00,172.00 Z
           M 232.00,174.00
           C 232.00,174.00 218.00,175.00 218.00,175.00
             218.00,175.00 232.00,174.00 232.00,174.00 Z
           M 248.00,175.00
           C 248.00,175.00 232.00,176.00 232.00,176.00
             232.00,176.00 248.00,175.00 248.00,175.00 Z
           M 256.00,176.00
           C 256.00,176.00 248.00,177.00 248.00,177.00
             248.00,177.00 256.00,176.00 256.00,176.00 Z
           M 517.00,177.00
           C 517.00,177.00 334.00,177.00 334.00,177.00
             334.00,177.00 281.00,177.00 281.00,177.00
             281.00,177.00 256.00,178.00 256.00,178.00
             256.00,178.00 439.00,178.00 439.00,178.00
             439.00,178.00 492.00,178.00 492.00,178.00
             492.00,178.00 517.00,177.00 517.00,177.00 Z
           M 536.00,178.00
           C 536.00,178.00 517.00,179.00 517.00,179.00
             517.00,179.00 536.00,178.00 536.00,178.00 Z
           M 576.00,179.00
           C 576.00,179.00 550.00,179.00 550.00,179.00
             550.00,179.00 536.00,180.00 536.00,180.00
             536.00,180.00 562.00,180.00 562.00,180.00
             562.00,180.00 576.00,179.00 576.00,179.00 Z
           M 581.00,180.00
           C 581.00,180.00 576.00,181.00 576.00,181.00
             576.00,181.00 581.00,180.00 581.00,180.00 Z
           M 588.00,181.00
           C 588.00,181.00 581.00,182.00 581.00,182.00
             581.00,182.00 588.00,181.00 588.00,181.00 Z
           M 595.00,182.00
           C 595.00,182.00 588.00,183.00 588.00,183.00
             588.00,183.00 595.00,182.00 595.00,182.00 Z
           M 600.00,183.00
           C 600.00,183.00 595.00,184.00 595.00,184.00
             595.00,184.00 600.00,183.00 600.00,183.00 Z
           M 605.00,184.00
           C 605.00,184.00 600.00,185.00 600.00,185.00
             600.00,185.00 605.00,184.00 605.00,184.00 Z
           M 613.00,185.00
           C 613.00,185.00 605.00,186.00 605.00,186.00
             605.00,186.00 613.00,185.00 613.00,185.00 Z
           M 621.00,186.00
           C 621.00,186.00 613.00,187.00 613.00,187.00
             613.00,187.00 621.00,186.00 621.00,186.00 Z
           M 631.00,188.00
           C 631.00,188.00 625.00,189.00 625.00,189.00
             625.00,189.00 631.00,188.00 631.00,188.00 Z
           M 637.00,189.00
           C 637.00,189.00 631.00,190.00 631.00,190.00
             631.00,190.00 637.00,189.00 637.00,189.00 Z
           M 642.00,190.00
           C 642.00,190.00 637.00,191.00 637.00,191.00
             637.00,191.00 642.00,190.00 642.00,190.00 Z
           M 659.00,194.00
           C 659.00,194.00 654.00,195.00 654.00,195.00
             654.00,195.00 659.00,194.00 659.00,194.00 Z
           M 665.00,195.00
           C 665.00,195.00 659.00,196.00 659.00,196.00
             659.00,196.00 665.00,195.00 665.00,195.00 Z
           M 671.00,196.00
           C 671.00,196.00 665.00,197.00 665.00,197.00
             665.00,197.00 671.00,196.00 671.00,196.00 Z
           M 679.00,197.00
           C 679.00,197.00 671.00,198.00 671.00,198.00
             671.00,198.00 679.00,197.00 679.00,197.00 Z
           M 693.00,198.00
           C 693.00,198.00 679.00,199.00 679.00,199.00
             679.00,199.00 693.00,198.00 693.00,198.00 Z
           M 715.00,199.00
           C 715.00,199.00 693.00,200.00 693.00,200.00
             693.00,200.00 715.00,199.00 715.00,199.00 Z
           M 735.00,201.00
           C 735.00,201.00 719.00,202.00 719.00,202.00
             719.00,202.00 735.00,201.00 735.00,201.00 Z
           M 742.00,202.00
           C 742.00,202.00 735.00,203.00 735.00,203.00
             735.00,203.00 742.00,202.00 742.00,202.00 Z
           M 747.00,203.00
           C 747.00,203.00 742.00,204.00 742.00,204.00
             742.00,204.00 747.00,203.00 747.00,203.00 Z
           M 753.00,204.00
           C 753.00,204.00 747.00,205.00 747.00,205.00
             747.00,205.00 753.00,204.00 753.00,204.00 Z
           M 758.00,205.00
           C 758.00,205.00 753.00,206.00 753.00,206.00
             753.00,206.00 758.00,205.00 758.00,205.00 Z
           M 784.00,212.00
           C 784.00,212.00 776.00,213.00 776.00,213.00
             776.00,213.00 784.00,212.00 784.00,212.00 Z
           M 792.00,213.00
           C 792.00,213.00 784.00,214.00 784.00,214.00
             784.00,214.00 792.00,213.00 792.00,213.00 Z
           M 816.00,216.00
           C 816.00,216.00 800.00,217.00 800.00,217.00
             800.00,217.00 816.00,216.00 816.00,216.00 Z
           M 836.00,217.00
           C 836.00,217.00 816.00,218.00 816.00,218.00
             816.00,218.00 836.00,217.00 836.00,217.00 Z
           M 850.00,218.00
           C 850.00,218.00 836.00,219.00 836.00,219.00
             836.00,219.00 850.00,218.00 850.00,218.00 Z
           M 865.00,219.00
           C 865.00,219.00 850.00,220.00 850.00,220.00
             850.00,220.00 865.00,219.00 865.00,219.00 Z
           M 879.00,220.00
           C 879.00,220.00 865.00,221.00 865.00,221.00
             865.00,221.00 879.00,220.00 879.00,220.00 Z
           M 893.00,221.00
           C 893.00,221.00 879.00,222.00 879.00,222.00
             879.00,222.00 893.00,221.00 893.00,221.00 Z
           M 931.00,222.00
           C 931.00,222.00 906.00,222.00 906.00,222.00
             906.00,222.00 893.00,223.00 893.00,223.00
             893.00,223.00 918.00,223.00 918.00,223.00
             918.00,223.00 931.00,222.00 931.00,222.00 Z
           M 943.00,223.00
           C 943.00,223.00 931.00,224.00 931.00,224.00
             931.00,224.00 943.00,223.00 943.00,223.00 Z
           M 957.00,224.00
           C 957.00,224.00 943.00,225.00 943.00,225.00
             943.00,225.00 957.00,224.00 957.00,224.00 Z
           M 969.00,225.00
           C 969.00,225.00 957.00,226.00 957.00,226.00
             957.00,226.00 969.00,225.00 969.00,225.00 Z
           M 979.00,226.00
           C 979.00,226.00 969.00,227.00 969.00,227.00
             969.00,227.00 979.00,226.00 979.00,226.00 Z
           M 990.00,227.00
           C 990.00,227.00 979.00,228.00 979.00,228.00
             979.00,228.00 990.00,227.00 990.00,227.00 Z
           M 1005.00,228.00
           C 1005.00,228.00 990.00,229.00 990.00,229.00
             990.00,229.00 1005.00,228.00 1005.00,228.00 Z
           M 1017.00,229.00
           C 1017.00,229.00 1005.00,230.00 1005.00,230.00
             1005.00,230.00 1017.00,229.00 1017.00,229.00 Z
           M 1025.00,230.00
           C 1025.00,230.00 1017.00,231.00 1017.00,231.00
             1017.00,231.00 1025.00,230.00 1025.00,230.00 Z
           M 1034.00,231.00
           C 1034.00,231.00 1025.00,232.00 1025.00,232.00
             1025.00,232.00 1034.00,231.00 1034.00,231.00 Z
           M 1045.00,232.00
           C 1045.00,232.00 1034.00,233.00 1034.00,233.00
             1034.00,233.00 1045.00,232.00 1045.00,232.00 Z
           M 1057.00,234.00
           C 1057.00,234.00 1049.00,235.00 1049.00,235.00
             1049.00,235.00 1057.00,234.00 1057.00,234.00 Z
           M 1116.00,235.00
           C 1116.00,235.00 1076.00,235.00 1076.00,235.00
             1076.00,235.00 1057.00,236.00 1057.00,236.00
             1057.00,236.00 1097.00,236.00 1097.00,236.00
             1097.00,236.00 1116.00,235.00 1116.00,235.00 Z
           M 1119.00,237.00
           C 1119.00,237.00 1118.00,237.00 1118.00,237.00
             1118.00,237.00 1119.00,238.00 1119.00,238.00
             1119.00,238.00 1119.00,237.00 1119.00,237.00 Z
           M 1120.00,238.00
           C 1120.00,238.00 1119.00,238.00 1119.00,238.00
             1119.00,238.00 1120.00,239.00 1120.00,239.00
             1120.00,239.00 1120.00,238.00 1120.00,238.00 Z
           M 1121.00,239.00
           C 1121.00,239.00 1120.00,239.00 1120.00,239.00
             1120.00,239.00 1121.00,240.00 1121.00,240.00
             1121.00,240.00 1121.00,239.00 1121.00,239.00 Z
           M 1124.00,241.00
           C 1124.00,241.00 1123.00,241.00 1123.00,241.00
             1123.00,241.00 1124.00,242.00 1124.00,242.00
             1124.00,242.00 1124.00,241.00 1124.00,241.00 Z
           M 1129.00,245.00
           C 1129.00,245.00 1128.00,246.00 1128.00,246.00
             1132.65,247.92 1137.98,250.84 1143.00,249.00
             1143.00,249.00 1129.00,245.00 1129.00,245.00 Z
           M 1146.00,251.00
           C 1146.00,251.00 1145.00,251.00 1145.00,251.00
             1145.00,251.00 1146.00,252.00 1146.00,252.00
             1146.00,252.00 1146.00,251.00 1146.00,251.00 Z
           M 1139.00,319.00
           C 1139.00,319.00 1117.00,321.00 1117.00,321.00
             1123.90,321.00 1132.62,321.73 1139.00,319.00 Z
           M 1114.00,322.00
           C 1114.00,322.00 1104.00,323.00 1104.00,323.00
             1104.00,323.00 1114.00,322.00 1114.00,322.00 Z
           M 1104.00,323.00
           C 1104.00,323.00 1094.00,324.00 1094.00,324.00
             1094.00,324.00 1104.00,323.00 1104.00,323.00 Z
           M 1094.00,324.00
           C 1094.00,324.00 1081.00,325.00 1081.00,325.00
             1081.00,325.00 1094.00,324.00 1094.00,324.00 Z
           M 1077.00,326.00
           C 1077.00,326.00 1064.00,327.00 1064.00,327.00
             1064.00,327.00 1077.00,326.00 1077.00,326.00 Z
           M 1064.00,327.00
           C 1064.00,327.00 1049.00,328.00 1049.00,328.00
             1049.00,328.00 1064.00,327.00 1064.00,327.00 Z
           M 1049.00,328.00
           C 1049.00,328.00 1043.00,329.00 1043.00,329.00
             1043.00,329.00 1049.00,328.00 1049.00,328.00 Z
           M 1039.00,330.00
           C 1039.00,330.00 1038.00,330.00 1038.00,330.00
             1038.00,330.00 1039.00,331.00 1039.00,331.00
             1039.00,331.00 1039.00,330.00 1039.00,330.00 Z
           M 1038.00,331.00
           C 1038.00,331.00 1030.00,332.00 1030.00,332.00
             1030.00,332.00 1038.00,331.00 1038.00,331.00 Z
           M 1028.00,333.00
           C 1028.00,333.00 1017.00,335.00 1017.00,335.00
             1017.00,335.00 1028.00,333.00 1028.00,333.00 Z
           M 1009.00,337.00
           C 1009.00,337.00 1003.00,338.00 1003.00,338.00
             1003.00,338.00 1009.00,337.00 1009.00,337.00 Z
           M 991.00,343.00
           C 991.00,343.00 990.00,343.00 990.00,343.00
             990.00,343.00 991.00,344.00 991.00,344.00
             991.00,344.00 991.00,343.00 991.00,343.00 Z
           M 972.00,352.00
           C 972.00,352.00 971.00,352.00 971.00,352.00
             971.00,352.00 972.00,353.00 972.00,353.00
             972.00,353.00 972.00,352.00 972.00,352.00 Z
           M 969.00,354.00
           C 969.00,354.00 968.00,354.00 968.00,354.00
             968.00,354.00 969.00,355.00 969.00,355.00
             969.00,355.00 969.00,354.00 969.00,354.00 Z
           M 968.00,355.00
           C 968.00,355.00 967.00,355.00 967.00,355.00
             967.00,355.00 968.00,356.00 968.00,356.00
             968.00,356.00 968.00,355.00 968.00,355.00 Z
           M 967.00,356.00
           C 967.00,356.00 966.00,356.00 966.00,356.00
             966.00,356.00 967.00,357.00 967.00,357.00
             967.00,357.00 967.00,356.00 967.00,356.00 Z
           M 966.00,357.00
           C 966.00,357.00 965.00,357.00 965.00,357.00
             965.00,357.00 966.00,358.00 966.00,358.00
             966.00,358.00 966.00,357.00 966.00,357.00 Z
           M 961.00,360.00
           C 961.00,360.00 960.00,360.00 960.00,360.00
             960.00,360.00 961.00,361.00 961.00,361.00
             961.00,361.00 961.00,360.00 961.00,360.00 Z
           M 960.00,361.00
           C 960.00,361.00 959.00,361.00 959.00,361.00
             959.00,361.00 960.00,362.00 960.00,362.00
             960.00,362.00 960.00,361.00 960.00,361.00 Z
           M 918.00,366.00
           C 918.00,366.00 802.00,366.00 802.00,366.00
             802.00,366.00 769.00,366.00 769.00,366.00
             769.00,366.00 752.00,367.00 752.00,367.00
             752.00,367.00 868.00,367.00 868.00,367.00
             868.00,367.00 901.00,367.00 901.00,367.00
             901.00,367.00 918.00,366.00 918.00,366.00 Z
           M 752.00,367.00
           C 752.00,367.00 724.00,367.00 724.00,367.00
             724.00,367.00 709.00,368.00 709.00,368.00
             709.00,368.00 737.00,368.00 737.00,368.00
             737.00,368.00 752.00,367.00 752.00,367.00 Z
           M 950.00,367.00
           C 950.00,367.00 949.00,367.00 949.00,367.00
             949.00,367.00 950.00,368.00 950.00,368.00
             950.00,368.00 950.00,367.00 950.00,367.00 Z
           M 709.00,368.00
           C 704.45,368.00 701.95,367.45 698.00,370.00
             698.00,370.00 709.00,368.00 709.00,368.00 Z
           M 949.00,368.00
           C 949.00,368.00 921.00,369.00 921.00,369.00
             921.00,369.00 949.00,368.00 949.00,368.00 Z
           M 695.00,371.00
           C 695.00,371.00 689.00,372.00 689.00,372.00
             689.00,372.00 695.00,371.00 695.00,371.00 Z
           M 684.00,374.00
           C 684.00,374.00 678.00,375.00 678.00,375.00
             678.00,375.00 684.00,374.00 684.00,374.00 Z
           M 678.00,375.00
           C 678.00,375.00 671.00,376.00 671.00,376.00
             671.00,376.00 678.00,375.00 678.00,375.00 Z
           M 671.00,376.00
           C 671.00,376.00 664.00,377.00 664.00,377.00
             664.00,377.00 671.00,376.00 671.00,376.00 Z
           M 656.00,379.00
           C 656.00,379.00 648.00,380.00 648.00,380.00
             648.00,380.00 656.00,379.00 656.00,379.00 Z
           M 648.00,380.00
           C 648.00,380.00 641.00,381.00 641.00,381.00
             641.00,381.00 648.00,380.00 648.00,380.00 Z
           M 637.00,382.00
           C 637.00,382.00 632.00,383.00 632.00,383.00
             632.00,383.00 637.00,382.00 637.00,382.00 Z
           M 586.00,400.00
           C 586.00,400.00 581.00,401.00 581.00,401.00
             581.00,401.00 586.00,400.00 586.00,400.00 Z
           M 568.00,405.00
           C 568.00,405.00 564.00,407.00 564.00,407.00
             564.00,407.00 568.00,405.00 568.00,405.00 Z
           M 564.00,407.00
           C 564.00,407.00 558.00,408.00 558.00,408.00
             558.00,408.00 564.00,407.00 564.00,407.00 Z
           M 558.00,408.00
           C 558.00,408.00 547.00,409.00 547.00,409.00
             547.00,409.00 558.00,408.00 558.00,408.00 Z
           M 547.00,409.00
           C 547.00,409.00 534.00,410.00 534.00,410.00
             534.00,410.00 547.00,409.00 547.00,409.00 Z
           M 534.00,410.00
           C 534.00,410.00 522.00,411.00 522.00,411.00
             522.00,411.00 534.00,410.00 534.00,410.00 Z
           M 522.00,411.00
           C 522.00,411.00 507.00,412.00 507.00,412.00
             507.00,412.00 522.00,411.00 522.00,411.00 Z
           M 507.00,412.00
           C 507.00,412.00 489.00,413.00 489.00,413.00
             489.00,413.00 507.00,412.00 507.00,412.00 Z
           M 489.00,413.00
           C 489.00,413.00 469.00,414.00 469.00,414.00
             469.00,414.00 489.00,413.00 489.00,413.00 Z
           M 469.00,414.00
           C 469.00,414.00 445.00,415.00 445.00,415.00
             445.00,415.00 469.00,414.00 469.00,414.00 Z
           M 445.00,415.00
           C 445.00,415.00 416.00,415.00 416.00,415.00
             416.00,415.00 401.00,416.00 401.00,416.00
             401.00,416.00 430.00,416.00 430.00,416.00
             430.00,416.00 445.00,415.00 445.00,415.00 Z
           M 401.00,416.00
           C 401.00,416.00 393.00,417.00 393.00,417.00
             393.00,417.00 401.00,416.00 401.00,416.00 Z
           M 393.00,417.00
           C 393.00,417.00 384.00,418.00 384.00,418.00
             384.00,418.00 393.00,417.00 393.00,417.00 Z
           M 384.00,418.00
           C 384.00,418.00 376.00,419.00 376.00,419.00
             376.00,419.00 384.00,418.00 384.00,418.00 Z
           M 376.00,419.00
           C 376.00,419.00 368.00,420.00 368.00,420.00
             368.00,420.00 376.00,419.00 376.00,419.00 Z
           M 368.00,420.00
           C 368.00,420.00 359.00,421.00 359.00,421.00
             359.00,421.00 368.00,420.00 368.00,420.00 Z
           M 359.00,421.00
           C 359.00,421.00 351.00,422.00 351.00,422.00
             351.00,422.00 359.00,421.00 359.00,421.00 Z
           M 351.00,422.00
           C 351.00,422.00 336.00,423.00 336.00,423.00
             336.00,423.00 351.00,422.00 351.00,422.00 Z
           M 336.00,423.00
           C 336.00,423.00 316.00,424.00 316.00,424.00
             316.00,424.00 336.00,423.00 336.00,423.00 Z
           M 316.00,424.00
           C 316.00,424.00 295.00,425.00 295.00,425.00
             295.00,425.00 316.00,424.00 316.00,424.00 Z
           M 295.00,425.00
           C 295.00,425.00 279.00,426.00 279.00,426.00
             279.00,426.00 295.00,425.00 295.00,425.00 Z
           M 279.00,426.00
           C 279.00,426.00 269.00,427.00 269.00,427.00
             269.00,427.00 279.00,426.00 279.00,426.00 Z
           M 269.00,427.00
           C 269.00,427.00 258.00,428.00 258.00,428.00
             258.00,428.00 269.00,427.00 269.00,427.00 Z
           M 258.00,428.00
           C 258.00,428.00 248.00,429.00 248.00,429.00
             248.00,429.00 258.00,428.00 258.00,428.00 Z
           M 248.00,429.00
           C 248.00,429.00 234.00,430.00 234.00,430.00
             234.00,430.00 248.00,429.00 248.00,429.00 Z
           M 18.00,430.00
           C 18.00,430.00 11.00,431.00 11.00,431.00
             11.00,431.00 18.00,430.00 18.00,430.00 Z
           M 234.00,430.00
           C 234.00,430.00 218.00,431.00 218.00,431.00
             218.00,431.00 234.00,430.00 234.00,430.00 Z
           M 26.00,431.00
           C 26.00,431.00 18.00,432.00 18.00,432.00
             18.00,432.00 26.00,431.00 26.00,431.00 Z
           M 218.00,431.00
           C 218.00,431.00 202.00,432.00 202.00,432.00
             202.00,432.00 218.00,431.00 218.00,431.00 Z
           M 33.00,432.00
           C 33.00,432.00 26.00,433.00 26.00,433.00
             26.00,433.00 33.00,432.00 33.00,432.00 Z
           M 202.00,432.00
           C 202.00,432.00 186.00,433.00 186.00,433.00
             186.00,433.00 202.00,432.00 202.00,432.00 Z
           M 186.00,433.00
           C 186.00,433.00 79.00,433.00 79.00,433.00
             79.00,433.00 49.00,433.00 49.00,433.00
             49.00,433.00 33.00,434.00 33.00,434.00
             33.00,434.00 140.00,434.00 140.00,434.00
             140.00,434.00 170.00,434.00 170.00,434.00
             170.00,434.00 186.00,433.00 186.00,433.00 Z
           M 74.00,515.00
           C 74.00,515.00 41.00,515.00 41.00,515.00
             41.00,515.00 25.00,516.00 25.00,516.00
             25.00,516.00 58.00,516.00 58.00,516.00
             58.00,516.00 74.00,515.00 74.00,515.00 Z
           M 280.00,515.00
           C 280.00,515.00 238.00,515.00 238.00,515.00
             238.00,515.00 218.00,516.00 218.00,516.00
             218.00,516.00 260.00,516.00 260.00,516.00
             260.00,516.00 280.00,515.00 280.00,515.00 Z
           M 218.00,516.00
           C 218.00,516.00 118.00,516.00 118.00,516.00
             118.00,516.00 89.00,516.00 89.00,516.00
             89.00,516.00 74.00,517.00 74.00,517.00
             74.00,517.00 174.00,517.00 174.00,517.00
             174.00,517.00 203.00,517.00 203.00,517.00
             203.00,517.00 218.00,516.00 218.00,516.00 Z
           M 301.00,516.00
           C 301.00,516.00 280.00,517.00 280.00,517.00
             280.00,517.00 301.00,516.00 301.00,516.00 Z
           M 320.00,521.00
           C 320.00,521.00 314.00,522.00 314.00,522.00
             314.00,522.00 320.00,521.00 320.00,521.00 Z
           M 327.00,522.00
           C 327.00,522.00 320.00,523.00 320.00,523.00
             320.00,523.00 327.00,522.00 327.00,522.00 Z
           M 333.00,523.00
           C 333.00,523.00 327.00,524.00 327.00,524.00
             327.00,524.00 333.00,523.00 333.00,523.00 Z
           M 342.00,526.00
           C 342.00,526.00 341.00,527.00 341.00,527.00
             341.00,527.00 346.00,527.00 346.00,527.00
             346.00,527.00 342.00,526.00 342.00,526.00 Z
           M 351.00,528.00
           C 351.00,528.00 346.00,529.00 346.00,529.00
             346.00,529.00 351.00,528.00 351.00,528.00 Z
           M 383.00,537.00
           C 383.00,537.00 378.00,538.00 378.00,538.00
             378.00,538.00 383.00,537.00 383.00,537.00 Z
           M 395.00,538.00
           C 395.00,538.00 383.00,539.00 383.00,539.00
             383.00,539.00 395.00,538.00 395.00,538.00 Z
           M 402.00,539.00
           C 402.00,539.00 395.00,540.00 395.00,540.00
             395.00,540.00 402.00,539.00 402.00,539.00 Z
           M 407.00,540.00
           C 407.00,540.00 402.00,541.00 402.00,541.00
             402.00,541.00 407.00,540.00 407.00,540.00 Z
           M 416.00,542.00
           C 416.00,542.00 411.00,543.00 411.00,543.00
             411.00,543.00 416.00,542.00 416.00,542.00 Z
           M 436.00,550.00
           C 436.00,550.00 435.00,550.00 435.00,550.00
             435.00,550.00 436.00,551.00 436.00,551.00
             436.00,551.00 436.00,550.00 436.00,550.00 Z
           M 440.00,553.00
           C 438.37,551.17 438.34,551.24 436.00,552.00
             436.00,552.00 440.00,553.00 440.00,553.00 Z
           M 463.00,556.00
           C 463.00,556.00 446.00,557.00 446.00,557.00
             446.00,557.00 463.00,556.00 463.00,556.00 Z
           M 475.00,560.00
           C 475.00,560.00 470.00,561.00 470.00,561.00
             470.00,561.00 475.00,560.00 475.00,560.00 Z
           M 484.00,561.00
           C 484.00,561.00 475.00,562.00 475.00,562.00
             475.00,562.00 484.00,561.00 484.00,561.00 Z
           M 503.00,562.00
           C 503.00,562.00 484.00,563.00 484.00,563.00
             484.00,563.00 503.00,562.00 503.00,562.00 Z
           M 513.00,563.00
           C 513.00,563.00 503.00,564.00 503.00,564.00
             503.00,564.00 513.00,563.00 513.00,563.00 Z
           M 519.00,564.00
           C 519.00,564.00 513.00,565.00 513.00,565.00
             513.00,565.00 519.00,564.00 519.00,564.00 Z
           M 527.00,565.00
           C 527.00,565.00 519.00,566.00 519.00,566.00
             519.00,566.00 527.00,565.00 527.00,565.00 Z
           M 533.00,566.00
           C 533.00,566.00 527.00,567.00 527.00,567.00
             527.00,567.00 533.00,566.00 533.00,566.00 Z
           M 547.00,569.00
           C 547.00,569.00 540.00,570.00 540.00,570.00
             540.00,570.00 547.00,569.00 547.00,569.00 Z
           M 556.00,570.00
           C 556.00,570.00 547.00,571.00 547.00,571.00
             547.00,571.00 556.00,570.00 556.00,570.00 Z
           M 599.00,571.00
           C 599.00,571.00 571.00,571.00 571.00,571.00
             571.00,571.00 556.00,572.00 556.00,572.00
             556.00,572.00 584.00,572.00 584.00,572.00
             584.00,572.00 599.00,571.00 599.00,571.00 Z
           M 678.00,572.00
           C 678.00,572.00 624.00,572.00 624.00,572.00
             624.00,572.00 599.00,573.00 599.00,573.00
             599.00,573.00 653.00,573.00 653.00,573.00
             653.00,573.00 678.00,572.00 678.00,572.00 Z
           M 684.00,573.00
           C 684.00,573.00 678.00,574.00 678.00,574.00
             678.00,574.00 684.00,573.00 684.00,573.00 Z
           M 732.00,574.00
           C 732.00,574.00 700.00,574.00 700.00,574.00
             700.00,574.00 684.00,575.00 684.00,575.00
             684.00,575.00 716.00,575.00 716.00,575.00
             716.00,575.00 732.00,574.00 732.00,574.00 Z
           M 745.00,575.00
           C 745.00,575.00 732.00,576.00 732.00,576.00
             732.00,576.00 745.00,575.00 745.00,575.00 Z
           M 758.00,576.00
           C 758.00,576.00 745.00,577.00 745.00,577.00
             745.00,577.00 758.00,576.00 758.00,576.00 Z
           M 773.00,580.00
           C 773.00,580.00 768.00,581.00 768.00,581.00
             768.00,581.00 773.00,580.00 773.00,580.00 Z
           M 786.00,581.00
           C 786.00,581.00 773.00,582.00 773.00,582.00
             773.00,582.00 786.00,581.00 786.00,581.00 Z
           M 791.00,582.00
           C 791.00,582.00 786.00,583.00 786.00,583.00
             786.00,583.00 791.00,582.00 791.00,582.00 Z
           M 796.00,583.00
           C 796.00,583.00 791.00,584.00 791.00,584.00
             791.00,584.00 796.00,583.00 796.00,583.00 Z
           M 801.00,584.00
           C 801.00,584.00 796.00,585.00 796.00,585.00
             796.00,585.00 801.00,584.00 801.00,584.00 Z
           M 899.00,585.00
           C 899.00,585.00 831.00,585.00 831.00,585.00
             824.62,585.00 805.87,584.07 801.00,586.00
             801.00,586.00 869.00,586.00 869.00,586.00
             875.38,586.00 894.13,586.93 899.00,585.00 Z
           M 916.00,588.00
           C 916.00,588.00 905.00,589.00 905.00,589.00
             905.00,589.00 916.00,588.00 916.00,588.00 Z
           M 925.00,589.00
           C 925.00,589.00 916.00,590.00 916.00,590.00
             916.00,590.00 925.00,589.00 925.00,589.00 Z
           M 936.00,591.00
           C 936.00,591.00 929.00,592.00 929.00,592.00
             929.00,592.00 936.00,591.00 936.00,591.00 Z
           M 999.00,592.00
           C 999.00,592.00 956.00,592.00 956.00,592.00
             956.00,592.00 936.00,593.00 936.00,593.00
             936.00,593.00 979.00,593.00 979.00,593.00
             979.00,593.00 999.00,592.00 999.00,592.00 Z
           M 1004.00,593.00
           C 1004.00,593.00 999.00,594.00 999.00,594.00
             999.00,594.00 1004.00,593.00 1004.00,593.00 Z
           M 1018.00,597.00
           C 1018.00,597.00 1012.00,598.00 1012.00,598.00
             1012.00,598.00 1018.00,597.00 1018.00,597.00 Z
           M 1032.00,602.00
           C 1032.00,602.00 1027.00,603.00 1027.00,603.00
             1027.00,603.00 1032.00,602.00 1032.00,602.00 Z
           M 1037.00,603.00
           C 1037.00,603.00 1032.00,604.00 1032.00,604.00
             1032.00,604.00 1037.00,603.00 1037.00,603.00 Z
           M 1043.00,604.00
           C 1043.00,604.00 1037.00,605.00 1037.00,605.00
             1037.00,605.00 1043.00,604.00 1043.00,604.00 Z
           M 1048.00,605.00
           C 1048.00,605.00 1043.00,606.00 1043.00,606.00
             1043.00,606.00 1048.00,605.00 1048.00,605.00 Z
           M 1104.00,623.00
           C 1104.00,623.00 1098.00,624.00 1098.00,624.00
             1098.00,624.00 1104.00,623.00 1104.00,623.00 Z
           M 1120.00,624.00
           C 1120.00,624.00 1104.00,625.00 1104.00,625.00
             1104.00,625.00 1120.00,624.00 1120.00,624.00 Z" />
</svg>
